<?xml version="1.0" encoding="utf-8"?>
<!-- Generator: Adobe Illustrator 21.1.0, SVG Export Plug-In . SVG Version: 6.00 Build 0)  -->
<svg version="1.1" id="Calque_1" xmlns="http://www.w3.org/2000/svg" xmlns:xlink="http://www.w3.org/1999/xlink" x="0px" y="0px"
	 viewBox="0 0 74.5 13.6" style="enable-background:new 0 0 74.5 13.6;" xml:space="preserve">
<g>
	<rect y="5.8" width="72.8" height="2"/>
</g>
<g>
	<path d="M66.4,13.6c-0.3,0-0.6-0.1-0.8-0.4c-0.3-0.4-0.2-1.1,0.2-1.4l6.4-4.6c0.2-0.1,0.3-0.3,0.3-0.4c0-0.1-0.1-0.3-0.3-0.4
		l-6.4-4.7c-0.4-0.3-0.5-1-0.2-1.4C65.9,0,66.6-0.1,67,0.2l6.4,4.7c0.7,0.5,1.1,1.2,1.1,2c0,0.8-0.4,1.5-1.1,2L67,13.4
		C66.8,13.6,66.6,13.6,66.4,13.6z"/>
</g>
</svg>
