<?xml version="1.0" encoding="utf-8"?>
<!-- Generator: Adobe Illustrator 21.1.0, SVG Export Plug-In . SVG Version: 6.00 Build 0)  -->
<svg version="1.1" id="Calque_1" xmlns="http://www.w3.org/2000/svg" xmlns:xlink="http://www.w3.org/1999/xlink" x="0px" y="0px"
	 viewBox="0 0 74.5 13.6" style="enable-background:new 0 0 74.5 13.6;" xml:space="preserve">
<g>
	<rect x="1.7" y="5.8" width="72.8" height="2"/>
</g>
<g>
	<path d="M8,0c0.3,0,0.6,0.1,0.8,0.4c0.3,0.4,0.2,1.1-0.2,1.4L2.3,6.4C2.1,6.5,2,6.7,2,6.8C2,6.9,2.1,7,2.3,7.2l6.4,4.7
		c0.4,0.3,0.5,1,0.2,1.4c-0.3,0.4-0.9,0.5-1.4,0.2L1.1,8.8C0.4,8.3,0,7.6,0,6.8c0-0.8,0.4-1.5,1.1-2l6.4-4.6C7.6,0.1,7.8,0,8,0z"/>
</g>
</svg>
